<svg xmlns="http://www.w3.org/2000/svg" width="1016" height="640" viewBox="0 0 1016 640"><defs><clipPath id="a"><rect x="72" y="164" width="200" height="292" rx="18" ry="18"/></clipPath></defs><rect x="24" y="24" width="868" height="542" rx="24" fill="#f6f8fb"/><rect x="24" y="24" width="868" height="542" rx="24" fill="none" stroke="#e5e7eb" stroke-width="2"/><path fill="#1e3a8a" d="M24 24h868v6H24z"/><path fill="#c81e1e" d="M24 30h868v6H24z"/><rect x="56" y="52" width="806" height="86" rx="18" fill="#fff" stroke="#e5e7eb" stroke-width="2"/><rect x="72" y="67" width="56" height="56" rx="14" fill="#fff" stroke="#e5e7eb" stroke-width="2"/><image x="80" y="75" width="40" height="40" href="{{issuer.image}}"/><g font-family="Inter, system-ui, -apple-system, Segoe UI, Roboto, Arial, sans-serif"><text x="144" y="90" font-size="16" font-weight="700" fill="#111827">
  <tspan x="144" dy="0">{{issuer.name}}</tspan>
</text><text x="144" y="110" font-size="12" fill="#4b5563"> {{name}} </text></g><g font-family="Inter, system-ui, -apple-system, Segoe UI, Roboto, Arial, sans-serif"><text x="420" y="92" font-size="22" font-weight="800" fill="#111827"> FIRE FIGHTER CREDENTIAL </text><text x="420" y="114" font-size="12" fill="#4b5563"> Professional Qualification Verification </text></g><rect x="56" y="146" width="232" height="332" rx="20" fill="#fff" stroke="#e5e7eb" stroke-width="2"/><g clip-path="url(#a)"><rect x="72" y="164" width="200" height="292" rx="18" fill="#f3f4f6"/><image x="72" y="164" width="200" height="292" href="{{credentialSubject.badge.personHumanResource.personIDCard.cardPicture}}" preserveAspectRatio="xMidYMid slice"/></g><rect x="312" y="146" width="550" height="332" rx="20" fill="#fff" stroke="#e5e7eb" stroke-width="2"/><g font-family="Inter, system-ui, -apple-system, Segoe UI, Roboto, Arial, sans-serif"><text x="344" y="190" font-size="11" fill="#6b7280" letter-spacing=".12em"> HOLDER </text><text x="344" y="218" font-size="22" font-weight="800" fill="#111827"> {{credentialSubject.name}} </text><text x="344" y="252" font-size="11" fill="#6b7280" letter-spacing=".12em"> CERTIFICATION </text><text x="344" y="278" font-size="18" font-weight="800" fill="#c81e1e"> {{credentialSubject.professionalCertifications.0.certificationLevel}} </text><text x="344" y="300" font-size="12" fill="#4b5563"> Standard: {{credentialSubject.professionalCertifications.0.nfpaStandard}} | Edition: {{credentialSubject.professionalCertifications.0.nfpaEdition}} </text><path stroke="#e5e7eb" stroke-width="2" d="M344 322h495"/><text x="344" y="350" font-size="11" fill="#6b7280" letter-spacing=".12em"> STATE FIRE TRAINING ID </text><text x="640" y="350" font-size="11" fill="#6b7280" letter-spacing=".12em"> BADGE / CARD ID </text><text x="344" y="376" font-size="16" fill="#111827" font-family="ui-monospace, SFMono-Regular, Menlo, Monaco, Consolas, 'Liberation Mono', monospace"> {{credentialSubject.stateFireTrainingId}} </text><text x="640" y="376" font-size="16" fill="#111827" font-family="ui-monospace, SFMono-Regular, Menlo, Monaco, Consolas, 'Liberation Mono', monospace"> {{credentialSubject.badge.personHumanResource.personIDCard.idCategoryCodeAbstract}} </text><text x="344" y="404" font-size="11" fill="#6b7280" letter-spacing=".12em"> DEPARTMENT </text><text x="640" y="404" font-size="11" fill="#6b7280" letter-spacing=".12em"> STATION </text><text x="344" y="428" font-size="16" fill="#111827"> {{credentialSubject.employmentRecord.fireDepartment}} </text><text x="640" y="428" font-size="16" fill="#111827"> {{credentialSubject.employmentRecord.stationAssignment}} </text></g><rect x="56" y="490" width="806" height="60" rx="18" fill="#fff" stroke="#e5e7eb" stroke-width="2"/><g font-family="Inter, system-ui, -apple-system, Segoe UI, Roboto, Arial, sans-serif"><text x="80" y="516" font-size="11" fill="#6b7280" letter-spacing=".12em">VALID FROM</text><text x="290" y="516" font-size="11" fill="#6b7280" letter-spacing=".12em">VALID UNTIL</text><text x="520" y="516" font-size="11" fill="#6b7280" letter-spacing=".12em">AUTHORITY</text><text x="80" y="540" font-size="14" fill="#111827" font-family="ui-monospace, SFMono-Regular, Menlo, Monaco, Consolas, 'Liberation Mono', monospace"> {{#formatDate}}{{validFrom}}{{/formatDate}} </text><text x="290" y="540" font-size="14" fill="#111827" font-family="ui-monospace, SFMono-Regular, Menlo, Monaco, Consolas, 'Liberation Mono', monospace"> {{#formatDate}}{{validUntil}}{{/formatDate}} </text><text x="520" y="540" font-size="14" fill="#111827"> {{credentialSubject.badge.personHumanResource.personIDCard.signatureAuthorityName}} </text></g></svg>