<svg xmlns="http://www.w3.org/2000/svg" width="1016" height="640" viewBox="0 0 1016 640"><defs><clipPath id="a"><rect x="72" y="164" width="200" height="292" rx="18" ry="18"/></clipPath></defs><rect x="24" y="24" width="868" height="492" rx="24" fill="#f6f8fb"/><rect x="24" y="24" width="868" height="492" rx="24" fill="none" stroke="#e5e7eb" stroke-width="2"/><path fill="#1e3a8a" d="M24 24h868v6H24z"/><path fill="#c81e1e" d="M24 30h868v6H24z"/><rect x="56" y="52" width="806" height="66" rx="18" fill="#fff" stroke="#e5e7eb" stroke-width="2"/><text x="468" y="92" font-size="28" font-weight="700" fill="#111827" text-anchor="middle" font-family="Inter, system-ui, -apple-system, Segoe UI, Roboto, Arial, sans-serif">
  {{issuer.name}}
</text><rect x="56" y="146" width="232" height="332" rx="20" fill="#fff" stroke="#e5e7eb" stroke-width="2"/><g clip-path="url(#a)"><rect x="72" y="164" width="200" height="292" rx="18" fill="#f3f4f6"/><image x="72" y="164" width="200" height="292" href="{{credentialSubject.badge.personHumanResource.personIDCard.cardPicture}}" preserveAspectRatio="xMidYMid slice"/></g><rect x="312" y="146" width="550" height="332" rx="20" fill="#fff" stroke="#e5e7eb" stroke-width="2"/><g font-family="Inter, system-ui, -apple-system, Segoe UI, Roboto, Arial, sans-serif"><text x="344" y="190" font-size="11" fill="#6b7280" letter-spacing=".12em"> HOLDER </text><text x="344" y="218" font-size="22" font-weight="800" fill="#111827"> {{credentialSubject.name}} </text><text x="604" y="190" font-size="11" fill="#6b7280" letter-spacing=".12em"> BADGE </text><text x="604" y="218" font-size="22" font-weight="800" fill="#111827"> {{credentialSubject.experience.jobTitleOrRole.jobTitleOrRoleName}} </text><path stroke="#e5e7eb" stroke-width="2" d="M344 240h495"/><text x="344" y="260" font-size="12" fill="#6b7280" letter-spacing=".12em"> STATE FIRE TRAINING ID </text><text x="344" y="285" font-size="16" fill="#111827" font-family="ui-monospace, SFMono-Regular, Menlo, Monaco, Consolas, 'Liberation Mono', monospace"> {{credentialSubject.badge.personHumanResource.personIDCard.idCategoryCodeAbstract}} </text><text x="344" y="315" font-size="12" fill="#6b7280" letter-spacing=".12em"> JURISDICTION </text><text x="344" y="340" font-size="16" fill="#111827"> {{credentialSubject.experience.jobTitleOrRole.jurisdictionName}} </text><path stroke="#e5e7eb" stroke-width="2" d="M344 355h495"/><text x="344" y="375" font-size="12" fill="#6b7280" letter-spacing=".12em">VALID FROM</text><text x="344" y="395" font-size="16" fill="#111827" font-family="ui-monospace, SFMono-Regular, Menlo, Monaco, Consolas, 'Liberation Mono', monospace">
  {{#formatDate}}{{validFrom}}{{/formatDate}}
</text><text x="520" y="375" font-size="12" fill="#6b7280" letter-spacing=".12em">VALID UNTIL</text><text x="520" y="395" font-size="16" fill="#111827" font-family="ui-monospace, SFMono-Regular, Menlo, Monaco, Consolas, 'Liberation Mono', monospace">
  {{#formatDate}}{{validUntil}}{{/formatDate}}
</text><text x="344" y="425" font-size="12" fill="#6b7280" letter-spacing=".12em">AUTHORITY</text><text x="344" y="445" font-size="16" fill="#111827">
  {{credentialSubject.badge.personHumanResource.personIDCard.signatureAuthorityName}}
</text></g></svg>