<?xml version="1.0" encoding="UTF-8"?>
<svg id="DL_front" xmlns="http://www.w3.org/2000/svg"
  xmlns:xlink="http://www.w3.org/1999/xlink" viewBox="0 0 243.83 153.51">
  <defs>
    <style>
      .cls-1 {
        letter-spacing: -.03em;
      }

      .cls-2 {
        fill: #362d76;
      }

      .cls-2,
      .cls-3,
      .cls-4,
      .cls-5,
      .cls-6 {
        font-family: Manrope-ExtraBold, Manrope;
        font-variation-settings: 'wght'800;
        font-weight: 700;
      }

      .cls-2,
      .cls-4,
      .cls-5 {
        font-size: 10px;
      }

      .cls-7 {
        letter-spacing: -.03em;
      }

      .cls-8 {
        fill: none;
      }

      .cls-8,
      .cls-9 {
        stroke-width: 0px;
      }

      .cls-3,
      .cls-9 {
        fill: #2d3f90;
      }

      .cls-3,
      .cls-6 {
        font-size: 6px;
      }

      .cls-10 {
        letter-spacing: -.03em;
      }

      .cls-4,
      .cls-6 {
        fill: #231f20;
      }

      .cls-5 {
        fill: #fff;
      }

      .cls-11 {
        letter-spacing: -.06em;
      }

      .cls-12 {
        letter-spacing: -.05em;
      }

      .cls-13 {
        clip-path: url(#clippath);
      }

      .cls-14 {
        letter-spacing: -.02em;
      }
    </style>
    <clipPath id="clippath">
      <rect class="cls-8" x="9.44" y="25.96" width="68.92" height="91.89" />
    </clipPath>
  </defs>
  <g class="cls-13">
    <image width="267" height="360" transform="translate(10.23 24.9) scale(.24)" xlink:href="{{credentialSubject.image}}" />
  </g>
  <rect class="cls-9" x="-1.45" y="124.53" width="247.08" height="17.66" />
  <path class="cls-9"
    d="M13.09,10.95h-2.86v-1.15h2.86v1.15ZM13.09,12.47h-2.86v-1.15h2.86v1.15ZM13.09,14h-2.86v-1.15h2.86v1.15ZM13.09,15.53h-2.86v-1.15h2.86v1.15ZM13.09,17.05h-2.86v-1.15h2.86v1.15ZM13.09,18.58h-2.86v-1.15h2.86v1.15ZM13.09,20.11h-2.86v-1.15h2.86v1.15ZM21.68,21.25c0,.13-.01.25-.04.38h-11.38c-.03-.13-.04-.25-.04-.38v-.76h11.45v.76ZM21.52,22.02c-.33.76-.92,1.15-1.76,1.15h-7.63c-.84,0-1.42-.38-1.76-1.15h11.15ZM21.68,10.95h-2.86v-1.15h2.86v1.15ZM21.68,12.47h-2.86v-1.15h2.86v1.15ZM21.68,14h-2.86v-1.15h2.86v1.15ZM21.68,15.53h-2.86v-1.15h2.86v1.15ZM21.68,17.05h-2.86v-1.15h2.86v1.15ZM21.68,18.58h-2.86v-1.15h2.86v1.15ZM21.68,20.11h-2.86v-1.15h2.86v1.15Z" />
  <path class="cls-9"
    d="M34.27,10.95h-11.45v-1.15h11.45v1.15ZM34.27,12.47h-11.45v-1.15h11.45v1.15ZM30.17,14h-2.86v-1.15h2.86v1.15ZM30.17,15.53h-2.86v-1.15h2.86v1.15ZM30.17,17.05h-2.86v-1.15h2.86v1.15ZM30.17,18.58h-2.86v-1.15h2.86v1.15ZM30.17,20.11h-2.86v-1.15h2.86v1.15ZM30.17,21.63h-2.86v-1.15h2.86v1.15ZM30.17,23.16h-2.86v-1.15h2.86v1.15Z" />
  <path class="cls-9"
    d="M46.87,12.47h-11.45v-.76c0-.13.01-.25.04-.38h11.38c.03.13.04.25.04.38v.76ZM38.28,14h-2.86v-1.15h2.86v1.15ZM38.28,15.53h-2.86v-1.15h2.86v1.15ZM38.28,17.05h-2.86v-1.15h2.86v1.15ZM38.28,18.58h-2.86v-1.15h2.86v1.15ZM38.28,20.11h-2.86v-1.15h2.86v1.15ZM46.87,21.25c0,.13-.01.25-.04.38h-11.38c-.03-.13-.04-.25-.04-.38v-.76h11.45v.76ZM46.72,10.95h-11.15c.33-.76.92-1.15,1.76-1.15h7.63c.84,0,1.42.38,1.76,1.15ZM46.72,22.02c-.33.76-.92,1.15-1.76,1.15h-7.63c-.84,0-1.42-.38-1.76-1.15h11.15ZM46.87,14h-2.86v-1.15h2.86v1.15ZM46.87,15.53h-2.86v-1.15h2.86v1.15ZM46.87,17.05h-2.86v-1.15h2.86v1.15ZM46.87,18.58h-2.86v-1.15h2.86v1.15ZM46.87,20.11h-2.86v-1.15h2.86v1.15Z" />
  <path class="cls-9"
    d="M59.31,10.95h-11.3v-1.15h9.54c.84,0,1.42.38,1.76,1.15ZM59.47,12.47h-11.45v-1.15h11.41c.03.13.04.25.04.38v.76ZM50.88,14h-2.86v-1.15h2.86v1.15ZM59.47,15.15c0,.13-.01.25-.04.38h-11.41v-1.15h11.45v.76ZM59.31,15.91c-.33.76-.92,1.15-1.76,1.15h-9.54v-1.15h11.3ZM50.88,18.58h-2.86v-1.15h2.86v1.15ZM50.88,20.11h-2.86v-1.15h2.86v1.15ZM50.88,21.63h-2.86v-1.15h2.86v1.15ZM50.88,23.16h-2.86v-1.15h2.86v1.15ZM59.47,14h-2.86v-1.15h2.86v1.15Z" />
  <path class="cls-9"
    d="M63.47,10.95h-2.86v-1.15h2.86v1.15ZM63.47,12.47h-2.86v-1.15h2.86v1.15ZM63.47,14h-2.86v-1.15h2.86v1.15ZM63.47,15.53h-2.86v-1.15h2.86v1.15ZM63.47,17.05h-2.86v-1.15h2.86v1.15ZM63.47,18.58h-2.86v-1.15h2.86v1.15ZM63.47,20.11h-2.86v-1.15h2.86v1.15ZM63.47,21.63h-2.86v-1.15h2.86v1.15ZM63.47,23.16h-2.86v-1.15h2.86v1.15Z" />
  <path class="cls-9"
    d="M67.75,22.02l-.46,1.15h-3.24l.46-1.15h3.24ZM68.36,20.49l-.46,1.15h-3.24l.46-1.15h3.24ZM77.14,20.11h-11.87l.46-1.15h10.96l.46,1.15ZM76.53,18.58h-10.65l.46-1.15h9.73l.46,1.15ZM70.19,15.91l-.46,1.15h-3.24l.46-1.15h3.24ZM70.8,14.38l-.46,1.15h-3.24l.46-1.15h3.24ZM74.7,14h-3.24l-.25-.63-.25.63h-3.24l.46-1.15h6.07l.46,1.15ZM74.09,12.47h-5.76l.46-1.15h4.85l.46,1.15ZM73.48,10.95h-4.54l.46-1.15h3.63l.46,1.15ZM75.31,15.53h-3.24l-.46-1.15h3.24l.46,1.15ZM75.92,17.05h-3.24l-.46-1.15h3.24l.46,1.15ZM77.75,21.63h-3.24l-.46-1.15h3.24l.46,1.15ZM78.36,23.16h-3.24l-.46-1.15h3.24l.46,1.15Z" />
  <text class="cls-5" transform="translate(25.94 136.53)">
    <tspan x="0" y="0">FIRS</tspan>
    <tspan class="cls-1" x="21.67" y="0">T</tspan>
    <tspan x="27.47" y="0" xml:space="preserve"> RESPONDER: MEDI</tspan>
    <tspan class="cls-14" x="119.98" y="0">C</tspan>
    <tspan x="127.24" y="0">A</tspan>
    <tspan class="cls-12" x="134.07" y="0">L</tspan>
    <tspan x="138.98" y="0" xml:space="preserve"> T</tspan>
    <tspan class="cls-10" x="147.08" y="0">E</tspan>
    <tspan x="152.73" y="0">CHNICIAN</tspan>
  </text>
  <path id="card_boundary" class="cls-8"
    d="M243.24,142.03c0,6.25-5.07,11.31-11.33,11.31H11.77c-6.37,0-11.53-5.15-11.53-11.5V11.84C.24,5.48,5.4.33,11.77.33h219.91c6.39,0,11.56,5.16,11.56,11.53v130.16Z" />
  <g id="layer1">
    <path id="path1" class="cls-9"
      d="M204.4,56.16c0-7.27-.05-9.16-.24-9.09-.13.05-3.62,2.01-7.76,4.35-4.13,2.34-7.53,4.24-7.55,4.22-.02-.02-1.31-2.3-2.87-5.06-1.56-2.76-3-5.29-3.19-5.63l-.35-.61,7.61-4.3c4.18-2.37,7.6-4.35,7.6-4.4,0-.06-3.43-2-7.62-4.33l-7.61-4.23.91-1.66c3.1-5.64,5.36-9.65,5.46-9.65.06,0,3.58,1.93,7.81,4.3l7.7,4.3.05-9.22.05-9.22h13.31v9.18c0,7.58.04,9.17.26,9.08.14-.05,3.57-1.97,7.61-4.26,4.04-2.29,7.45-4.19,7.56-4.21.12-.03,1.64,2.47,3.39,5.54,2.54,4.47,3.12,5.63,2.91,5.79-.15.11-3.57,2.06-7.61,4.34-4.04,2.28-7.28,4.2-7.21,4.28.07.07,3.43,1.97,7.47,4.22,4.03,2.25,7.4,4.15,7.49,4.24.12.11-5.75,10.96-6.14,11.35-.04.04-3.57-1.88-7.85-4.27l-7.78-4.35-.05,9.25-.05,9.25h-13.31v-9.18ZM212.08,59.18c.04-.46,0-.61-.19-.55-.14.05-.28.37-.32.72-.04.46,0,.61.19.55.14-.05.28-.37.32-.72h0ZM212.16,58.02c1.29-.82,1.8-1.97,1.3-2.92-.33-.62-.76-.46-.76.27,0,.65-.67,1.77-1.51,2.51-.38.33-.41.7-.06.7.08,0,.55-.26,1.04-.57h0ZM211.89,56.64c.25-.4.7-8.05.48-8.27-.05-.05-.35.21-.67.58-.57.66-.57.7-.47,2.39.06.94.11,2.62.11,3.71s.07,2,.15,2,.26-.18.4-.41h0ZM210.91,51.79l-.1-2.36,1.59-1.64c.88-.9,1.73-1.92,1.9-2.26.59-1.17.26-3.29-.56-3.6-.53-.2-.57-.15-.63.89-.09,1.43-.56,2.33-2.13,4.07-1.57,1.74-1.74,2.25-1.39,4.15.26,1.42.93,3.11,1.22,3.11.13,0,.16-.83.1-2.36ZM212.02,45.1l.58-.82.17-4.43c.09-2.44.11-4.49.03-4.57-.08-.08-.58.34-1.11.92l-.97,1.06.12,3.28c.07,1.81.12,3.79.13,4.41,0,1.33.21,1.36,1.06.15h0ZM210.43,39.44l-.1-2.36,2.44-2.38c1.34-1.31,2.63-2.74,2.86-3.18.56-1.08.59-2.86.05-3.76-.37-.61-1.36-1.39-1.79-1.39-.11,0-.25.72-.32,1.69-.07.93-.16,1.86-.21,2.07-.05.21-.96,1.3-2.03,2.41-2.3,2.39-2.88,3.42-2.88,5.13,0,.64.13,1.56.29,2.04.32.93,1.37,2.36,1.63,2.2.09-.05.11-1.16.06-2.46h0ZM212.74,30.55c.37-.51.42-1,.62-6.37.12-3.2.19-5.86.15-5.91-.04-.05-.14.02-.22.15-.24.39-1.19.55-2.22.39-.53-.08-.98-.13-1.01-.1-.07.07.3,10.87.44,12.64l.11,1.42.87-.84c.48-.46,1.04-1.09,1.26-1.39h0ZM209.95,26.01c-.08-1.6-.16-1.97-.5-2.35-.23-.24-.52-.75-.65-1.13-.35-1-.3-3.26.09-3.99l.32-.6,1.02.35c.56.19,1.29.36,1.63.36.65,0,1.7-.72,1.29-.89-.13-.05-.18-.22-.12-.37.06-.15.03-.28-.06-.28s-.6-.36-1.13-.79c-.92-.76-1.01-.79-2.05-.71-1.83.13-2.96,1.28-3.55,3.6-.47,1.85,0,4.31,1.21,6.26.5.8,2.13,2.45,2.43,2.45.11,0,.15-.76.09-1.9h0ZM213.71,14.75c.11-2.76-.08-3.4-1.14-3.91-.84-.4-1.47-.26-2.21.48-.52.52-.55.65-.55,2.12,0,1.08.07,1.59.24,1.64.13.04.47.12.76.19.28.06.97.5,1.53.98.56.48,1.08.87,1.15.87s.17-1.06.23-2.36h0Z" />
  </g><text class="cls-2" transform="translate(82.05 38.99)">
    <tspan x="0" y="0">ID</tspan>
  </text><text id="idCategoryCodeAbstract" class="cls-4" transform="translate(103.32 38.99)">
    <tspan x="0" y="0">{{credentialSubject.badge.personHumanResource.personIDCard.idCategoryCodeAbstract}}</tspan>
  </text><text class="cls-4" transform="translate(81.62 87.43)">
    <tspan x="0" y="0">{{credentialSubject.name}}</tspan>
  </text><text id="expirationDate" class="cls-6" transform="translate(132.23 108.6)">
    <tspan x="0" y="0">{{credentialSubject.name}}</tspan>
  </text><text id="deployment_date" class="cls-6" transform="translate(132.45 101.65)">
    <tspan x="0" y="0">{{credentialSubject.experience.jobTitleOrRole.deploymentSummary.deploymentStartDate}}</tspan>
  </text><text class="cls-3" transform="translate(82.16 101.51)">
    <tspan x="0" y="0">DEP</tspan>
    <tspan class="cls-14" x="11.7" y="0">L</tspan>
    <tspan class="cls-7" x="14.83" y="0">O</tspan>
    <tspan x="19.19" y="0">YMEN</tspan>
    <tspan class="cls-7" x="36.05" y="0">T</tspan>
    <tspan x="0" y="7.2">EXPIR</tspan>
    <tspan class="cls-11" x="17.27" y="7.2">A</tspan>
    <tspan x="21.01" y="7.2">TION</tspan>
  </text>
</svg>
